<svg xmlns="http://www.w3.org/2000/svg" width="276.21" height="142.52">
  <g id="logo-bg">
    <path d="M257.349 5.306c6.407 34.614 12.17 70.022 17.361 106.26-78.145 25.813-156.385 34.288-228.965 26.88-11.965-31.571-24.876-62.59-38.791-93.115 81.04 4.379 166.536-8.64 250.395-40.025z"/>
    <path fill="none" stroke="#000" stroke-width="3" stroke-linejoin="round" stroke-miterlimit="10" d="M257.349 5.306c6.407 34.614 12.17 70.022 17.361 106.26-78.145 25.813-156.385 34.288-228.965 26.88-11.965-31.571-24.876-62.59-38.791-93.115 81.04 4.379 166.536-8.64 250.395-40.025z"/>
    <path fill="#38a89d" d="M251.895 1.5c6.407 34.615 12.17 70.022 17.36 106.262-78.145 25.812-156.384 34.286-228.965 26.878C28.326 103.069 15.415 72.05 1.5 41.524c81.04 4.38 166.536-8.639 250.395-40.024z"/>
    <path fill="none" stroke="#000" stroke-width="3" stroke-linejoin="round" stroke-miterlimit="10" d="M251.895 1.5c6.407 34.615 12.17 70.022 17.36 106.262-78.145 25.812-156.384 34.286-228.965 26.878C28.326 103.069 15.415 72.05 1.5 41.524c81.04 4.38 166.536-8.639 250.395-40.024z"/>
  </g>
  <path stroke="#000" stroke-width="3" stroke-miterlimit="10" d="M260.899 61.561l5.78-11.442-43.004-6.714-10.216 65.428 1.509-63.32-3.724-.089.751-2.428-62.142.797.14 10.977-7.546-18.164-12.387.161-25.03 67.588-4.177-56.122 23.835-1.775 3.44-14.146-54.951 4.091-1.144-5.902c-5.988-1.67-15.072-2.271-25.381-.27-20.773 4.026-29.95 19.177-27.1 33.884 5.908 30.478 48.651 19.674 52.442 39.234 1.675 8.643-6.046 13.443-14.385 15.06-9.098 1.763-17.296.048-24.003-2.899l-4.424 15.332c8.611 3.836 20.174 5.056 31.851 2.794 13.69-2.654 24.051-9.736 28.389-19.441l.795 10.679 16.25-1.21-.087-1.168 8.018-.105L122.122 101l30.319-.394 8.534 21.179 12.781-.166.006.483 14.313-.183-.851-66.437 12.906-.166-1.667 70.01 14.595.349.099-4.159 41.484 6.479 1.882-12.051-28.945-4.52 3.337-21.384 24.929 3.892 1.882-12.051-24.928-3.892 3.172-20.32 24.929 3.892zm-222.23-2.723c-1.558-8.037 4.585-12.059 11.559-13.412 2.565-.497 5.197-.732 7.874-.768l.5 6.72 26.001-1.936 2.906 39.047c-12.118-19.952-45.704-13.478-48.84-29.651zm87.804 29.459l5.976-16.852c2.235-6.609 3.477-10.369 4.213-13.346l.259-.002c.811 2.828 2.021 6.683 4.428 13.104l6.153 16.823-21.029.273zm24.013-32.344l22.425-.287.717 55.991-23.142-55.704z"/>
  <linearGradient id="a" gradientUnits="userSpaceOnUse" x1="113.1533" y1="25.1411" x2="113.1533" y2="130.9404">
    <stop offset="0" stop-color="#FFED4A"/>
    <stop offset=".7" stop-color="#F6993F"/>
    <stop offset="1" stop-color="#E3342F"/>
  </linearGradient>
  <path fill="url(#a)" stroke="#000" stroke-width="2" stroke-miterlimit="10" d="M209.628 39.167l-62.142.797.139 10.976-7.546-18.164-12.386.16-25.029 67.588-4.177-56.121 23.834-1.775 3.44-14.146-54.949 4.091-1.144-5.903c-5.989-1.669-15.073-2.269-25.382-.27-20.772 4.026-29.949 19.177-27.099 33.884 5.908 30.478 48.65 19.676 52.441 39.235 1.676 8.642-6.045 13.442-14.385 15.06-9.099 1.763-17.295.048-24.002-2.899l-4.424 15.331c8.61 3.837 20.173 5.056 31.85 2.794 13.691-2.654 24.051-9.736 28.389-19.44l.794 10.678 16.251-1.211-.087-1.168 8.018-.105 7.722-21.39 30.318-.394 8.534 21.179 12.78-.166.006.484 14.313-.184-.851-66.437 20.992-.27 3.782-12.214zM36.3 55.008c-1.557-8.037 4.586-12.059 11.561-13.411 2.565-.498 5.194-.752 7.871-.789l.503 6.739 26-1.936 2.906 39.046C73.021 64.708 39.437 71.181 36.3 55.008zm87.804 29.46l5.975-16.853c2.236-6.609 3.478-10.368 4.214-13.346l.258-.002c.812 2.829 2.022 6.684 4.429 13.104l6.154 16.824-21.03.273zm24.013-32.345l22.426-.287.716 55.99-23.142-55.703z"/>
  <path fill="url(#a)" stroke="#000" stroke-width="2" stroke-miterlimit="10" d="M258.53 57.731l5.78-11.441-43.003-6.714-10.172 65.143 1.465-61.456-14.598-.349-1.909 80.163 14.596.349.136-5.733 41.447 6.472 1.882-12.051-28.945-4.52 3.337-21.384 24.93 3.893 1.88-12.052-24.927-3.892 3.173-20.32z"/>
</svg>
